PathFileType	4	(X/Y/Z)	/Users/itak/Documents/Research/Walk-IL/dataset/trc/00068_00006.trc
DataRate	CameraRate	NumFrames	NumMarkers	Units	OrigDataRate	OrigDataStartFrame	OrigNumFrames
100.000000	100.000000	4	53	mm	100.000000	617	706
Frame#	Time	RPSI			LPSI			L3			STRN			T10			C7			CLAV			RBAK			LBAK			LSHO			LUPA			LAEL			LAOL			LWTS			LWPS			LFRA			LIFD			LHPS			LHTS			RSHO			RUPA			RAEL			RAOL			RWTS			RWPS			RFRA			RIFD			RHTS			RHPS			RBHD			LFHD			RFHD			LBHD			LHIP			RHIP			RASI			LASI			LKNE			LTHI			LANK			LTIP			LTOE			LMT1			LMT5			LHEE			RKNE			RTHI			RANK			RTIP			RTOE			RMT1			RMT5			RHEE			
		X1	Y1	Z1	X2	Y2	Z2	X3	Y3	Z3	X4	Y4	Z4	X5	Y5	Z5	X6	Y6	Z6	X7	Y7	Z7	X8	Y8	Z8	X9	Y9	Z9	X10	Y10	Z10	X11	Y11	Z11	X12	Y12	Z12	X13	Y13	Z13	X14	Y14	Z14	X15	Y15	Z15	X16	Y16	Z16	X17	Y17	Z17	X18	Y18	Z18	X19	Y19	Z19	X20	Y20	Z20	X21	Y21	Z21	X22	Y22	Z22	X23	Y23	Z23	X24	Y24	Z24	X25	Y25	Z25	X26	Y26	Z26	X27	Y27	Z27	X28	Y28	Z28	X29	Y29	Z29	X30	Y30	Z30	X31	Y31	Z31	X32	Y32	Z32	X33	Y33	Z33	X34	Y34	Z34	X35	Y35	Z35	X36	Y36	Z36	X37	Y37	Z37	X38	Y38	Z38	X39	Y39	Z39	X40	Y40	Z40	X41	Y41	Z41	X42	Y42	Z42	X43	Y43	Z43	X44	Y44	Z44	X45	Y45	Z45	X46	Y46	Z46	X47	Y47	Z47	X48	Y48	Z48	X49	Y49	Z49	X50	Y50	Z50	X51	Y51	Z51	X52	Y52	Z52	X53	Y53	Z53	

618	6.17	547.7899169921875	1036.748901367188	897.278076171875	612.1820068359375	1026.068115234375	1058.239990234375	579.596923828125	1089.500122070312	987.0272827148438	343.3463439941406	1292.678466796875	1065.774658203125	600.5675048828125	1222.75732421875	990.67822265625	547.764892578125	1490.5712890625	1006.076782226562	374.2922668457031	1406.859619140625	1056.025146484375	585.9949951171875	1350.51708984375	920.1472778320312	597.7032470703125	1453.53564453125	1095.920532226562	521.633056640625	1464.195434570312	1194.212280273438	557.9144287109375	1340.535034179688	1270.373291015625	531.103759765625	1128.597412109375	1308.79443359375	569.5087890625	1105.0009765625	1211.997924804688	397.2538757324219	903.1761474609375	1279.123291015625	465.9562072753906	884.91357421875	1324.127807617188	500.8030090332031	1022.65185546875	1326.032592773438	355.6941528320312	723.6056518554688	1268.262084960938	420.0256042480469	810.064453125	1332.55615234375	363.2369689941406	826.9583129882812	1292.597290039062	439.9249877929688	1454.365600585938	856.767578125	436.7698364257812	1387.259765625	793.8846435546875	464.8398132324219	1131.920288085938	737.1875610351562	464.32373046875	1101.625122070312	832.4215698242188	318.2621765136719	884.464111328125	790.7549438476562	376.9502563476562	868.1969604492188	728.4183959960938	446.7035827636719	1050.379272460938	725.9705810546875	322.3582153320312	693.927490234375	814.1478271484375	294.6546630859375	780.2706909179688	795.3001708984375	343.4810485839844	777.131591796875	734.1342163085938	505.9840698242188	1683.451171875	1081.753784179688	325.7967834472656	1692.759033203125	963.8756713867188	329.796142578125	1709.532958984375	1088.881958007812	493.566650390625	1657.836791992188	947.2492065429688	544.20947265625	961.9815063476562	1177.633666992188	456.0856018066406	969.7421875	843.0326538085938	348.250732421875	990.722412109375	904.5787353515625	422.8927612304688	974.0115966796875	1161.124755859375	404.9784851074219	508.5264282226562	1154.61328125	460.9151306152344	644.2296142578125	1180.35693359375	500.6210632324219	50.32307052612305	1145.836669921875	456.3907165527344	263.4662170410156	1161.759521484375	298.552490234375	44.81582260131836	1193.482177734375	332.2101440429688	40.87825775146484	1130.764404296875	412.01806640625	44.48835754394531	1210.076049804688	529.3998413085938	44.43552398681641	1058.707397460938	322.1690063476562	530.5689697265625	915.1091918945312	352.9087219238281	800.1107788085938	869.653076171875	457.8230895996094	57.51323699951172	873.9467163085938	348.5169982910156	406.4587097167969	898.1301879882812	266.0464782714844	77.36069488525391	966.1976318359375	332.8848876953125	69.32250213623047	989.2064208984375	337.125	68.93052673339844	891.7929077148438	518.4343872070312	57.39007186889648	916.2355346679688	
619	6.18	546.3321533203125	1037.052490234375	899.463134765625	609.7086181640625	1026.216674804688	1060.811401367188	577.6412353515625	1089.8759765625	989.4465942382812	340.5218505859375	1292.914306640625	1066.584350585938	598.5048828125	1223.1513671875	993.1832885742188	545.3465576171875	1490.876586914062	1008.337768554688	371.694091796875	1407.0693359375	1057.060546875	584.1803588867188	1350.88720703125	922.5887451171875	594.6840209960938	1453.881713867188	1098.625854492188	517.7288208007812	1464.40576171875	1196.307495117188	552.9178466796875	1340.675048828125	1272.770751953125	525.1246948242188	1128.614624023438	1310.471069335938	565.0989379882812	1105.212280273438	1214.304565429688	392.2638549804688	902.9215698242188	1278.07373046875	460.0133666992188	884.82275390625	1324.446899414062	494.6069030761719	1022.611206054688	1327.069946289062	352.5557861328125	722.8994750976562	1267.147705078125	414.0321960449219	809.7345581054688	1331.712890625	358.0386657714844	826.593505859375	1290.796020507812	438.4607238769531	1454.683715820312	858.2915649414062	435.6092529296875	1387.564331054688	795.3871459960938	463.7409362792969	1132.164306640625	738.9512939453125	462.8304138183594	1101.9033203125	834.1961059570312	316.9573059082031	884.70263671875	791.6980590820312	375.9203491210938	868.4616088867188	729.7105712890625	445.6084594726562	1050.614379882812	727.6700439453125	320.9856262207031	694.1635131835938	815.1146240234375	293.2937927246094	780.3897705078125	796.2098999023438	342.508544921875	777.3455200195312	735.2119140625	503.3127136230469	1683.551635742188	1083.417358398438	323.2991027832031	1693.098999023438	965.2559814453125	327.173095703125	1709.740234375	1090.325927734375	491.0855712890625	1658.092041015625	948.8505859375	540.994873046875	962.1129760742188	1179.8173828125	454.7994079589844	970.1924438476562	844.769287109375	346.5368041992188	991.3392944335938	905.561767578125	419.7779846191406	974.2413940429688	1162.504760742188	403.5171813964844	508.3095397949219	1155.094360351562	458.5938110351562	644.16845703125	1181.431518554688	500.550048828125	50.4019775390625	1145.789184570312	455.6658935546875	263.3331298828125	1161.970947265625	298.5382385253906	44.8377799987793	1193.396484375	332.1349487304688	40.79442596435547	1130.666259765625	411.9294738769531	44.61464691162109	1209.955200195312	529.4638061523438	44.60601806640625	1058.689453125	321.2301025390625	531.173095703125	916.2788696289062	351.3697204589844	800.6350708007812	870.5029296875	445.9183654785156	54.5316162109375	880.4496459960938	345.2221374511719	406.5241394042969	900.5394287109375	254.7203979492188	78.38655090332031	972.8551635742188	321.3491821289062	69.55609893798828	995.8842163085938	325.4593811035156	67.90748596191406	898.3853149414062	506.5717163085938	54.12892532348633	922.6846313476562	
620	6.19	544.7947998046875	1037.252563476562	901.5211181640625	607.2515869140625	1026.282470703125	1063.223388671875	575.6808471679688	1090.18115234375	991.7085571289062	337.7867126464844	1293.099731445312	1067.301879882812	596.4332885742188	1223.477294921875	995.5299072265625	543.0091552734375	1491.122314453125	1010.4541015625	369.1812438964844	1407.238403320312	1058.007080078125	582.3825073242188	1351.189697265625	924.8683471679688	591.7741088867188	1454.154296875	1101.161010742188	513.9625854492188	1464.54345703125	1198.247924804688	548.0542602539062	1340.739868164062	1274.97802734375	519.2791748046875	1128.560791015625	1311.94677734375	560.8158569335938	1105.351440429688	1216.434936523438	387.4284362792969	902.6014404296875	1276.821899414062	454.2182312011719	884.6707763671875	1324.573120117188	488.543212890625	1022.498779296875	1327.900268554688	350.3346252441406	721.9821166992188	1266.291137695312	408.1865539550781	809.3110961914062	1330.634887695312	353.0694580078125	826.1517944335938	1288.806396484375	437.0128479003906	1454.961547851562	859.7091064453125	434.4615173339844	1387.838134765625	796.7818603515625	462.6158447265625	1132.375122070312	740.57568359375	461.366455078125	1102.154907226562	835.8334350585938	315.6117553710938	884.9529418945312	792.593017578125	374.8250122070312	868.6947021484375	730.9694213867188	444.5403442382812	1050.812622070312	729.2474365234375	319.5416564941406	694.417236328125	816.1135864257812	292.0838012695312	780.4580078125	797.2246704101562	341.4751892089844	777.5364379882812	736.3120727539062	500.7392578125	1683.604370117188	1084.950927734375	320.8443603515625	1693.378784179688	966.57861328125	324.6265258789062	1709.886474609375	1091.68896484375	488.6422119140625	1658.301391601562	950.323486328125	537.859619140625	962.2178344726562	1181.89111328125	453.4190673828125	970.541748046875	846.4354248046875	344.7613220214844	991.8623657226562	906.54296875	416.720458984375	974.4598999023438	1163.83642578125	402.06005859375	508.0781860351562	1155.576782226562	456.3348083496094	644.0860595703125	1182.485107421875	500.4966430664062	50.45635223388672	1145.758911132812	454.9749450683594	263.1994323730469	1162.201782226562	298.5248718261719	44.84790802001953	1193.338256835938	332.0693664550781	40.72449493408203	1130.586181640625	411.8546142578125	44.7097053527832	1209.856689453125	529.5321044921875	44.77276611328125	1058.67529296875	320.2761840820312	531.6832885742188	917.3567504882812	349.7423095703125	801.0723876953125	871.4144897460938	434.9357299804688	51.99826049804688	886.2550048828125	342.1430969238281	406.6086120605469	902.7440795898438	244.6248931884766	78.82369995117188	979.4122924804688	311.0974426269531	69.50032806396484	1002.23095703125	314.7310791015625	66.6617431640625	904.6429443359375	495.7070922851562	51.60988616943359	928.2713012695312	
621	6.2	543.1654663085938	1037.354370117188	903.4481201171875	604.8051147460938	1026.267211914062	1065.46923828125	573.7068481445312	1090.408203125	993.8075561523438	335.1566467285156	1293.22998046875	1067.945922851562	594.3477783203125	1223.724243164062	997.7166748046875	540.7518920898438	1491.303955078125	1012.425598144531	366.7285461425781	1407.3671875	1058.86279296875	580.5979614257812	1351.419555664062	926.9868774414062	588.9752197265625	1454.346435546875	1103.523315429688	510.3471374511719	1464.59912109375	1200.037109375	543.3505859375	1340.71240234375	1276.986450195312	513.5783081054688	1128.425048828125	1313.22802734375	556.6699829101562	1105.404907226562	1218.391357421875	382.7426147460938	902.2197265625	1275.395385742188	448.5710754394531	884.4496459960938	1324.512084960938	482.6220397949219	1022.305480957031	1328.531494140625	348.9770202636719	720.8740234375	1265.7099609375	402.4775695800781	808.7889404296875	1329.334350585938	348.3225402832031	825.6369018554688	1286.650146484375	435.5745849609375	1455.1923828125	861.0204467773438	433.3202514648438	1388.074584960938	798.0693359375	461.47021484375	1132.542358398438	742.0664672851562	459.9158325195312	1102.369018554688	837.3380126953125	314.2210693359375	885.2017822265625	793.4453125	373.6749572753906	868.8839721679688	732.1942749023438	443.5025634765625	1050.966796875	730.7083740234375	318.039306640625	694.6751098632812	817.1475830078125	290.9569396972656	780.501220703125	798.2969360351562	340.3713073730469	777.6961059570312	737.4244995117188	498.2694396972656	1683.605712890625	1086.352416992188	318.4361572265625	1693.606567382812	967.8526611328125	322.1671447753906	1709.980712890625	1092.984252929688	486.2380981445312	1658.461181640625	951.6686401367188	534.8157348632812	962.2943115234375	1183.847778320312	451.9390869140625	970.7842407226562	848.0269775390625	342.9156188964844	992.2835693359375	907.5185546875	413.7231140136719	974.6574096679688	1165.1220703125	400.6068115234375	507.8262329101562	1156.071655273438	454.1625061035156	643.9879150390625	1183.514404296875	500.459228515625	50.4903564453125	1145.743041992188	454.3138122558594	263.0708618164062	1162.453857421875	298.5132751464844	44.84984970092773	1193.304443359375	332.0153503417969	40.6690559387207	1130.526000976562	411.7970886230469	44.76876831054688	1209.786254882812	529.5955810546875	44.92160034179688	1058.66650390625	319.284912109375	532.0719604492188	918.3551025390625	348.0426635742188	801.408935546875	872.392578125	425.01318359375	49.88484954833984	891.350830078125	339.2876586914062	406.6942443847656	904.7474365234375	235.7977905273438	78.60519409179688	985.7350463867188	302.1591796875	69.08634185791016	1008.142944335938	305.0402221679688	65.17844390869141	910.478759765625	485.9659118652344	49.77737808227539	933.0230712890625	
